<svg width="256" height="256" viewBox="0 0 256 256" fill="none" xmlns="http://www.w3.org/2000/svg">
<path d="M245.698 41.208H10.3039C4.61444 41.208 0.00244141 36.596 0.00244141 30.9065C0.00244141 25.217 4.61444 20.605 10.3039 20.605H245.698C251.388 20.605 256 25.217 256 30.9065C256 36.5955 251.388 41.208 245.698 41.208Z" fill="#D99668"/>
<path d="M110.526 130.576C110.526 111.388 120.828 111.388 120.828 92.2011C120.828 73.0141 110.526 73.0136 110.526 53.8266C110.526 34.6401 120.828 34.6401 120.828 15.4541H40.6887C40.6887 34.6406 30.3872 34.6406 30.3872 53.8266C30.3872 73.0141 40.6887 73.0141 40.6887 92.2011C40.6887 111.389 30.3872 111.389 30.3872 130.576H110.526Z" fill="#FFEE6E"/>
<path d="M83.8131 130.576C83.8131 111.388 94.1146 111.388 94.1146 92.2011C94.1146 73.0136 83.8131 73.0136 83.8131 53.8266C83.8131 34.6401 94.1146 34.6401 94.1146 15.4541H67.4016C67.4016 34.6406 57.1001 34.6406 57.1001 53.8266C57.1001 73.0141 67.4016 73.0141 67.4016 92.2011C67.4016 111.388 57.1001 111.388 57.1001 130.576H83.8131Z" fill="#FFD883"/>
<path d="M255.998 128C255.998 198.534 198.947 255.743 128.473 255.998C57.8125 256.254 0 197.667 0 127.007C0 116.176 8.78 107.397 19.61 107.397H236.388C247.219 107.397 255.999 116.178 255.998 127.009V128Z" fill="#FF9B87"/>
<path d="M74.472 127.007C74.472 116.176 83.252 107.397 94.082 107.397H19.61C8.7795 107.397 0 116.177 0 127.007C0 197.667 57.8125 256.254 128.473 255.998C141.335 255.952 153.746 254 165.449 250.424C112.931 234.23 74.472 184.637 74.472 127.007Z" fill="#FF8870"/>
<path d="M87.0233 213.424C95.3742 213.424 102.144 208.033 102.144 201.383C102.144 194.732 95.3742 189.342 87.0233 189.342C78.6725 189.342 71.9028 194.732 71.9028 201.383C71.9028 208.033 78.6725 213.424 87.0233 213.424Z" fill="white"/>
<path d="M168.98 213.424C177.331 213.424 184.101 208.033 184.101 201.383C184.101 194.732 177.331 189.342 168.98 189.342C160.63 189.342 153.86 194.732 153.86 201.383C153.86 208.033 160.63 213.424 168.98 213.424Z" fill="white"/>
<path d="M95.8354 193.542C93.7639 193.542 92.0854 191.863 92.0854 189.792V183.61C92.0854 181.539 93.7639 179.86 95.8354 179.86C97.9069 179.86 99.5854 181.539 99.5854 183.61V189.791C99.5854 191.863 97.9064 193.542 95.8354 193.542Z" fill="#595959"/>
<path d="M160.168 193.542C158.097 193.542 156.418 191.863 156.418 189.792V183.61C156.418 181.539 158.097 179.86 160.168 179.86C162.24 179.86 163.918 181.539 163.918 183.61V189.791C163.918 191.863 162.239 193.542 160.168 193.542Z" fill="#595959"/>
<path d="M128.002 197.22C123.668 197.22 119.547 195.343 116.695 192.07C115.334 190.509 115.497 188.14 117.058 186.779C118.619 185.419 120.988 185.581 122.349 187.143C123.776 188.78 125.837 189.72 128.003 189.72C130.168 189.72 132.229 188.78 133.656 187.143C135.018 185.581 137.385 185.419 138.947 186.779C140.508 188.14 140.671 190.509 139.311 192.07C136.458 195.344 132.336 197.22 128.002 197.22Z" fill="#595959"/>
<path d="M3.7805 157.914H252.474C254.772 148.317 255.997 138.302 255.997 128V127.009H0C0 137.638 1.317 147.991 3.7805 157.914Z" fill="#FF6C52"/>
<path d="M3.7805 157.914H78.2475C75.784 147.991 74.472 137.638 74.472 127.009H0C0 137.638 1.317 147.991 3.7805 157.914Z" fill="#FF583E"/>
<path d="M245.699 20.6047H10.3044C4.61493 20.6047 0.00292969 15.9927 0.00292969 10.3032C0.00292969 4.61371 4.61493 0.00170903 10.3044 0.00170903H245.699C251.388 0.00120902 256 4.61371 256 10.3032C256 15.9927 251.388 20.6047 245.699 20.6047Z" fill="#F2B88F"/>
<path d="M57.1004 10.3032C57.1004 4.61371 61.7129 0.00170898 67.4019 0.00170898H10.3044C4.61493 0.00170898 0.00292969 4.61421 0.00292969 10.3032C0.00292969 15.9927 4.61543 20.6047 10.3044 20.6047H67.4024C61.7124 20.6047 57.1004 15.9927 57.1004 10.3032Z" fill="#E3A67B"/>
</svg>
